Coordinates
version=1
nRows=24
nColumns=38
inDegrees=no

Units are S.I. units (second, meters, Newtons, ...)
If the header above contains a line with 'inDegrees', this indicates whether rotational values are in degrees (yes) or radians (no).

endheader
time	pelvis_tilt	pelvis_list	pelvis_rotation	pelvis_tx	pelvis_ty	pelvis_tz	hip_flexion_r	hip_adduction_r	hip_rotation_r	knee_angle_r	ankle_angle_r	subtalar_angle_r	mtp_angle_r	hip_flexion_l	hip_adduction_l	hip_rotation_l	knee_angle_l	ankle_angle_l	subtalar_angle_l	mtp_angle_l	lumbar_extension	lumbar_bending	lumbar_rotation	arm_flex_r	arm_add_r	arm_rot_r	elbow_flex_r	pro_sup_r	wrist_flex_r	wrist_dev_r	arm_flex_l	arm_add_l	arm_rot_l	elbow_flex_l	pro_sup_l	wrist_flex_l	wrist_dev_l
1.44	-1.45379	1.56329	-0.0964057	0.65481	-0.698781	1.05101	0.234321	-0.107251	-0.302316	0.0744789	-0.211895	0	0	-0.259026	-0.112102	-0.316452	0.14363	-0.15565	0	0	-0.42975	0.125343	-0.191442	-0.0551654	-0.39302	0.35674	0.747779	0.93823	0	0	-0.0181833	-0.608459	0.0505019	1.07434	1.41343	0	0
1.45	-2.81413	1.56455	1.2663	0.651378	-0.711953	1.04826	0.237529	-0.113282	-0.31039	0.0351121	-0.210044	0	0	-0.264381	-0.110311	-0.318341	0.146269	-0.156075	0	0	-0.419478	0.120652	-0.196542	-0.0573525	-0.387851	0.360193	0.742946	0.930188	0	0	-0.023294	-0.609737	0.0496684	1.07581	1.41341	0	0
1.46	2.90108	1.55959	1.83562	0.647662	-0.725203	1.04556	0.240144	-0.117704	-0.319149	0.00440561	-0.204069	0	0	-0.270863	-0.109522	-0.320577	0.150702	-0.15634	0	0	-0.411845	0.116402	-0.200359	-0.0592138	-0.382961	0.363264	0.739833	0.920955	0	0	-0.0285988	-0.611272	0.0489256	1.0774	1.41308	0	0
1.47	2.73833	1.55457	1.99845	0.643673	-0.738583	1.04293	0.245065	-0.120865	-0.331933	0	-0.190469	0	0	-0.277547	-0.109757	-0.322595	0.156604	-0.156815	0	0	-0.405857	0.112754	-0.202455	-0.0600524	-0.378692	0.368238	0.73631	0.909372	0	0	-0.033678	-0.612748	0.0489187	1.07827	1.41305	0	0
1.48	2.71537	1.55101	2.02062	0.639526	-0.752089	1.04046	0.249153	-0.121014	-0.344343	0	-0.17445	0	0	-0.284649	-0.111806	-0.323298	0.163393	-0.158409	0	0	-0.401499	0.110859	-0.20243	-0.0605558	-0.375606	0.373495	0.733201	0.89521	0	0	-0.0380624	-0.612631	0.0484567	1.07803	1.41303	0	0
1.49	2.74308	1.54997	1.99076	0.635298	-0.765657	1.03835	0.249082	-0.11859	-0.351577	0	-0.166061	0	0	-0.292797	-0.115273	-0.323418	0.172189	-0.160477	0	0	-0.400471	0.111217	-0.19979	-0.0610935	-0.372739	0.375305	0.730292	0.883385	0	0	-0.0409802	-0.610516	0.0477712	1.07645	1.41345	0	0
1.5	2.77387	1.55197	1.95595	0.630891	-0.779223	1.03655	0.249232	-0.113048	-0.355169	0	-0.163094	0	0	-0.30302	-0.119577	-0.32486	0.182753	-0.163999	0	0	-0.403739	0.112847	-0.195387	-0.060718	-0.371546	0.376496	0.729711	0.870037	0	0	-0.0438277	-0.608394	0.0471241	1.07499	1.4139	0	0
1.51	2.81585	1.55637	1.90829	0.626491	-0.792597	1.03503	0.245324	-0.106246	-0.347382	0	-0.169234	0	0	-0.314532	-0.123677	-0.326469	0.19514	-0.167171	0	0	-0.41048	0.11534	-0.189576	-0.0592391	-0.371764	0.376546	0.730707	0.861982	0	0	-0.0464272	-0.605587	0.045967	1.07353	1.41405	0	0
1.52	2.78698	1.55741	1.9298	0.621722	-0.806138	1.03293	0.247015	-0.101665	-0.331318	0.00435311	-0.199395	0	0	-0.321343	-0.125465	-0.329689	0.212428	-0.174746	0	0	-0.414436	0.114485	-0.180951	-0.0597409	-0.373615	0.378809	0.732864	0.846018	0	0	-0.0489053	-0.602025	0.0444993	1.07226	1.4142	0	0
1.53	2.97314	1.55959	1.74054	0.61716	-0.820304	1.03129	0.244639	-0.0938039	-0.328961	0.0194642	-0.243357	0	0	-0.326753	-0.13131	-0.326938	0.232137	-0.183846	0	0	-0.415751	0.117959	-0.176171	-0.0591788	-0.37417	0.382781	0.728638	0.833029	0	0	-0.0519377	-0.596448	0.0439994	1.06558	1.41463	0	0
1.54	-2.92034	1.56103	1.34893	0.612737	-0.834455	1.02997	0.241018	-0.0852426	-0.33063	0.0341442	-0.279223	0	0	-0.329253	-0.13846	-0.31967	0.256473	-0.193776	0	0	-0.417453	0.123672	-0.172244	-0.057537	-0.375209	0.387685	0.723304	0.820295	0	0	-0.0541462	-0.590166	0.0446079	1.05652	1.41415	0	0
1.55	-2.37185	1.55942	0.798598	0.608424	-0.848397	1.02914	0.23675	-0.0758284	-0.333485	0.0514433	-0.290669	0	0	-0.328059	-0.146947	-0.307471	0.286778	-0.204229	0	0	-0.420403	0.131574	-0.166735	-0.0556839	-0.377247	0.391773	0.718637	0.808759	0	0	-0.0540431	-0.582412	0.0461721	1.04552	1.41318	0	0
1.56	-1.96274	1.55303	0.386959	0.604169	-0.862032	1.02902	0.233058	-0.0639159	-0.338747	0.0730912	-0.285271	0	0	-0.323255	-0.157464	-0.291001	0.323642	-0.217809	0	0	-0.425215	0.142863	-0.158514	-0.0536716	-0.381008	0.395479	0.715697	0.795143	0	0	-0.0507769	-0.572524	0.0493161	1.03128	1.41116	0	0
1.57	-1.79316	1.54291	0.214423	0.599959	-0.875238	1.02949	0.231891	-0.0495459	-0.343743	0.0994483	-0.269237	0	0	-0.313809	-0.170011	-0.27258	0.367311	-0.234958	0	0	-0.430963	0.156701	-0.147542	-0.0517537	-0.386026	0.398869	0.714244	0.779725	0	0	-0.0445949	-0.56094	0.0537308	1.01465	1.40989	0	0
1.58	-1.74048	1.53216	0.158607	0.59581	-0.888125	1.0303	0.233649	-0.0350711	-0.344544	0.129135	-0.248589	0	0	-0.299071	-0.18244	-0.251476	0.418977	-0.256463	0	0	-0.435992	0.170785	-0.134981	-0.0507979	-0.392479	0.402537	0.714952	0.761253	0	0	-0.0364754	-0.54814	0.0592989	0.995745	1.40941	0	0
1.59	-1.70261	1.52234	0.11722	0.591618	-0.900704	1.03143	0.235087	-0.0212447	-0.339538	0.158119	-0.232344	0	0	-0.280981	-0.193543	-0.228324	0.477882	-0.275031	0	0	-0.442187	0.184103	-0.124855	-0.0489383	-0.397397	0.403821	0.716257	0.746262	0	0	-0.0314857	-0.53649	0.0626937	0.978398	1.40703	0	0
1.6	-1.6838	1.51518	0.0954521	0.58742	-0.912998	1.03255	0.233671	-0.0110717	-0.328459	0.182515	-0.21597	0	0	-0.259171	-0.201303	-0.202357	0.542381	-0.293611	0	0	-0.44755	0.194698	-0.117011	-0.047656	-0.401167	0.403804	0.718491	0.732859	0	0	-0.0275834	-0.526375	0.0664306	0.961628	1.40313	0	0
1.61	-1.6837	1.51195	0.0939019	0.583147	-0.92521	1.03336	0.232392	-0.00363764	-0.324152	0.204175	-0.196867	0	0	-0.233817	-0.204733	-0.175607	0.61025	-0.315028	0	0	-0.450278	0.201409	-0.113556	-0.0472406	-0.402219	0.403807	0.719287	0.720535	0	0	-0.0254932	-0.51979	0.0727222	0.945541	1.39591	0	0
1.62	-1.67914	1.51305	0.0898396	0.578939	-0.937354	1.03393	0.227615	-0.00067107	-0.32229	0.220773	-0.178273	0	0	-0.206475	-0.203559	-0.149784	0.679025	-0.33623	0	0	-0.451725	0.202932	-0.11508	-0.046464	-0.400382	0.405536	0.717645	0.713431	0	0	-0.0260485	-0.517602	0.0800644	0.932897	1.38627	0	0
1.63	-1.63439	1.5171	0.04835	0.574922	-0.949622	1.03448	0.217638	-0.00124294	-0.323447	0.233734	-0.158994	0	0	-0.180093	-0.199572	-0.125195	0.745228	-0.359296	0	0	-0.453316	0.201277	-0.121057	-0.0474851	-0.396736	0.405983	0.716582	0.709598	0	0	-0.0284254	-0.519043	0.0891209	0.923111	1.37529	0	0
1.64	-1.44461	1.51887	-0.13282	0.571493	-0.962082	1.0359	0.195815	-0.000630639	-0.336162	0.23988	-0.141872	0	0	-0.160638	-0.198204	-0.102295	0.805606	-0.384104	0	0	-0.461303	0.202771	-0.130442	-0.0490729	-0.394206	0.405259	0.718198	0.709352	0	0	-0.0291111	-0.522685	0.102542	0.9147	1.36272	0	0
1.65	-1.37272	1.52478	-0.198995	0.567888	-0.974057	1.0364	0.184702	-0.00472077	-0.3381	0.249724	-0.123705	0	0	-0.132538	-0.190944	-0.0823829	0.865557	-0.398666	0	0	-0.460601	0.19814	-0.139144	-0.0530759	-0.390615	0.401628	0.72011	0.710647	0	0	-0.0308952	-0.527836	0.117502	0.90766	1.35044	0	0
1.66	-1.34942	1.53092	-0.217946	0.564381	-0.985928	1.03689	0.17609	-0.0080814	-0.337429	0.257516	-0.107478	0	0	-0.102111	-0.182622	-0.0653613	0.921906	-0.394878	0	0	-0.456026	0.192934	-0.145514	-0.0578752	-0.387121	0.397735	0.719509	0.711291	0	0	-0.03107	-0.53186	0.13456	0.899099	1.34204	0	0
1.67	-1.32927	1.53582	-0.23495	0.560957	-0.99778	1.03764	0.166802	-0.00980372	-0.337807	0.263334	-0.0939338	0	0	-0.0731681	-0.173863	-0.0494667	0.973161	-0.373852	0	0	-0.45132	0.18882	-0.149999	-0.0628965	-0.384799	0.394032	0.718522	0.710483	0	0	-0.0309644	-0.534402	0.151331	0.890371	1.33597	0	0
